<svg aria-hidden="true" focusable="false" role="presentation" class="icon icon--wide logo" viewBox="0 0 242 90.93"><path d="M227 55.15a14.57 14.57 0 0 0-20.69 0 14.43 14.43 0 0 0 .14 20.63 14.29 14.29 0 0 0 20.55.1 14.62 14.62 0 0 0 0-20.73zm-4.84 16a7.63 7.63 0 0 1-5.49 2.32 7.26 7.26 0 0 1-5.59-2.5 7.9 7.9 0 0 1-2.28-5.42 7.63 7.63 0 0 1 2.32-5.59 7.73 7.73 0 0 1 11.11.07 7.73 7.73 0 0 1 2.31 5.52 7.54 7.54 0 0 1-2.35 5.56z"></path><path d="M220.07 65.51a3.38 3.38 0 0 1-1 2.46 3.7 3.7 0 0 1-1 .72l-1.37.23a3.34 3.34 0 0 1-2.39-1 3.74 3.74 0 0 1-.95-2.46 3.32 3.32 0 0 1 1-2.39 3.18 3.18 0 0 1 2.36-1 3.25 3.25 0 0 1 2.41 1 3.36 3.36 0 0 1 .94 2.44z"></path><path d="M216.71 47.83a17.7 17.7 0 0 1 17.51 15.37H242a25.4 25.4 0 0 0-50.6 0h7.79a17.7 17.7 0 0 1 17.52-15.37zM216.71 83.2a17.7 17.7 0 0 1-17.52-15.37h-7.79a25.4 25.4 0 0 0 50.6 0h-7.78a17.7 17.7 0 0 1-17.51 15.37zM33.47 46.65l-9.85 5.25q-2.34-4.77-5.77-4.77A4 4 0 0 0 15 48.22 3.62 3.62 0 0 0 13.87 51q0 3 6.89 5.88 9.48 4.07 12.76 7.51t3.28 9.27a16.23 16.23 0 0 1-5.5 12.5 18.76 18.76 0 0 1-12.92 4.77q-13 0-18.38-12.66l10.17-4.71a22.06 22.06 0 0 0 3.23 4.71 7.38 7.38 0 0 0 5.19 2c4 0 6-1.83 6-5.51q0-3.17-4.66-5.93-1.8-.9-3.6-1.74c-1.2-.57-2.42-1.15-3.65-1.75Q7.52 62.8 5.4 60.26A12.51 12.51 0 0 1 2.7 52a14.72 14.72 0 0 1 4.61-11.17 16.16 16.16 0 0 1 11.44-4.4q9.9 0 14.72 10.22z"></path><path d="M83.63 66.46h-37a15.62 15.62 0 0 0 4.17 10.12 12.58 12.58 0 0 0 9.37 3.7 12.15 12.15 0 0 0 7.36-2.12Q70.4 76 74 70.33l10.1 5.61a39.35 39.35 0 0 1-4.92 6.8 25.84 25.84 0 0 1-5.56 4.66 22.39 22.39 0 0 1-6.41 2.68 31.37 31.37 0 0 1-7.46.85q-11.55 0-18.54-7.42t-7-19.8q0-12.24 6.78-19.81t18.11-7.47q11.39 0 18 7.26t6.57 20zM71.4 56.72q-2.49-9.54-12-9.54a12.36 12.36 0 0 0-4.07.67 11.61 11.61 0 0 0-3.47 1.9 12.4 12.4 0 0 0-2.68 3 14 14 0 0 0-1.69 4z"></path><path d="M132.78 66.46h-37A15.67 15.67 0 0 0 100 76.58a12.6 12.6 0 0 0 9.37 3.7 12.12 12.12 0 0 0 7.36-2.12q2.86-2.11 6.52-7.83l10.06 5.61a39.37 39.37 0 0 1-4.93 6.8 25.84 25.84 0 0 1-5.56 4.66 22.33 22.33 0 0 1-6.4 2.68 31.52 31.52 0 0 1-7.47.85q-11.55 0-18.54-7.42t-7-19.8q0-12.24 6.78-19.81t18.11-7.47q11.38 0 18 7.26t6.57 20zm-12.23-9.74q-2.49-9.54-12-9.54a12.38 12.38 0 0 0-4.08.67 11.61 11.61 0 0 0-3.47 1.9 12.16 12.16 0 0 0-2.67 3 14 14 0 0 0-1.7 4z"></path><path d="M173 0h12v89.44h-12V84q-7.05 6.88-15.94 6.89a22.68 22.68 0 0 1-17.58-7.74q-6.94-7.89-6.94-19.69 0-11.55 6.94-19.28a22.14 22.14 0 0 1 17.31-7.79q9.06 0 16.21 7.42zm-28.29 63.5q0 7.41 4 12.07A13 13 0 0 0 159 80.28a13.69 13.69 0 0 0 10.7-4.55 17.63 17.63 0 0 0 4.08-12 17.63 17.63 0 0 0-4.08-12 13.49 13.49 0 0 0-10.59-4.61 13.19 13.19 0 0 0-10.27 4.66 17.2 17.2 0 0 0-4.13 11.72z"></path></svg>